<mxfile modified="2021-05-26T06:59:19.580Z" host="app.diagrams.net" agent="5.0 (Windows NT 10.0; Win64; x64) AppleWebKit/537.36 (KHTML, like Gecko) Chrome/90.0.4430.212 Safari/537.36" etag="cmSeT8f6T3FPCQ8dz2pU" version="14.7.0" type="github">
  <diagram id="Ht1M8jgEwFfnCIfOTk4-" name="Page-1">
    <mxGraphModel dx="1483" dy="783" grid="1" gridSize="10" guides="1" tooltips="1" connect="1" arrows="1" fold="1" page="1" pageScale="1" pageWidth="1169" pageHeight="827" math="0" shadow="0">
      <root>
        <mxCell id="0" />
        <mxCell id="1" parent="0" />
        <mxCell id="KkwIyWC0tpA56-c7tn5v-14" value="Same VPC,Security Group" style="swimlane;strokeColor=#1D2633;" vertex="1" parent="1">
          <mxGeometry x="530" y="30" width="490" height="200" as="geometry" />
        </mxCell>
        <mxCell id="KkwIyWC0tpA56-c7tn5v-12" value="&#xa;&#xa;&lt;span style=&quot;color: rgb(0, 0, 0); font-family: helvetica; font-size: 12px; font-style: normal; font-weight: 400; letter-spacing: normal; text-align: center; text-indent: 0px; text-transform: none; word-spacing: 0px; background-color: rgb(248, 249, 250); display: inline; float: none;&quot;&gt;Care App&amp;nbsp; Data (AWS Dynamo DB)&lt;/span&gt;&#xa;&#xa;" style="outlineConnect=0;dashed=0;verticalLabelPosition=bottom;verticalAlign=top;align=center;html=1;shape=mxgraph.aws3.dynamo_db;fillColor=#2E73B8;gradientColor=none;strokeColor=#1D2633;" vertex="1" parent="KkwIyWC0tpA56-c7tn5v-14">
          <mxGeometry x="340" y="49.5" width="72" height="81" as="geometry" />
        </mxCell>
        <mxCell id="KkwIyWC0tpA56-c7tn5v-1" value="AWS Database Migration Service" style="outlineConnect=0;fontColor=#232F3E;gradientColor=none;strokeColor=#ffffff;fillColor=#232F3E;dashed=0;verticalLabelPosition=middle;verticalAlign=bottom;align=center;html=1;whiteSpace=wrap;fontSize=10;fontStyle=1;spacing=3;shape=mxgraph.aws4.productIcon;prIcon=mxgraph.aws4.database_migration_service;" vertex="1" parent="KkwIyWC0tpA56-c7tn5v-14">
          <mxGeometry x="80" y="40" width="80" height="120" as="geometry" />
        </mxCell>
        <mxCell id="KkwIyWC0tpA56-c7tn5v-17" style="edgeStyle=orthogonalEdgeStyle;rounded=0;orthogonalLoop=1;jettySize=auto;html=1;entryX=1;entryY=0.7;entryDx=0;entryDy=0;entryPerimeter=0;" edge="1" parent="1" source="KkwIyWC0tpA56-c7tn5v-1" target="KkwIyWC0tpA56-c7tn5v-11">
          <mxGeometry relative="1" as="geometry" />
        </mxCell>
        <mxCell id="KkwIyWC0tpA56-c7tn5v-21" value="Pull Data" style="edgeLabel;html=1;align=center;verticalAlign=middle;resizable=0;points=[];" vertex="1" connectable="0" parent="KkwIyWC0tpA56-c7tn5v-17">
          <mxGeometry x="0.1516" y="-2" relative="1" as="geometry">
            <mxPoint as="offset" />
          </mxGeometry>
        </mxCell>
        <mxCell id="KkwIyWC0tpA56-c7tn5v-18" style="edgeStyle=orthogonalEdgeStyle;rounded=0;orthogonalLoop=1;jettySize=auto;html=1;" edge="1" parent="1" source="KkwIyWC0tpA56-c7tn5v-1">
          <mxGeometry relative="1" as="geometry">
            <mxPoint x="860" y="129.9999999999999" as="targetPoint" />
          </mxGeometry>
        </mxCell>
        <mxCell id="KkwIyWC0tpA56-c7tn5v-22" value="Push Data" style="edgeLabel;html=1;align=center;verticalAlign=middle;resizable=0;points=[];" vertex="1" connectable="0" parent="KkwIyWC0tpA56-c7tn5v-18">
          <mxGeometry x="0.2588" y="2" relative="1" as="geometry">
            <mxPoint as="offset" />
          </mxGeometry>
        </mxCell>
        <mxCell id="KkwIyWC0tpA56-c7tn5v-23" value="HIS App DB publicly accessible" style="swimlane;strokeColor=#1D2633;" vertex="1" parent="1">
          <mxGeometry x="50" y="30" width="300" height="310" as="geometry" />
        </mxCell>
        <mxCell id="KkwIyWC0tpA56-c7tn5v-11" value="" style="outlineConnect=0;dashed=0;verticalLabelPosition=bottom;verticalAlign=top;align=center;html=1;shape=mxgraph.aws3.ms_sql_instance;fillColor=#2E73B8;gradientColor=none;" vertex="1" parent="KkwIyWC0tpA56-c7tn5v-23">
          <mxGeometry x="30" y="30.5" width="120" height="100" as="geometry" />
        </mxCell>
        <mxCell id="KkwIyWC0tpA56-c7tn5v-27" value="&lt;ul&gt;&lt;li&gt;&lt;span&gt;Creation temp migration tables as per DynamoDB table model.&lt;/span&gt;&lt;/li&gt;&lt;li&gt;&lt;span&gt;Populate with required data from HIS Table data&lt;/span&gt;&lt;/li&gt;&lt;/ul&gt;" style="html=1;shadow=0;dashed=0;shape=mxgraph.bootstrap.rrect;rSize=5;strokeColor=#999999;strokeWidth=1;fillColor=#FFFFFF;fontColor=#6C767D;whiteSpace=wrap;align=left;verticalAlign=middle;spacingLeft=10;fontSize=14;spacing=10;" vertex="1" parent="KkwIyWC0tpA56-c7tn5v-23">
          <mxGeometry x="20" y="140" width="230" height="130" as="geometry" />
        </mxCell>
      </root>
    </mxGraphModel>
  </diagram>
</mxfile>
